<svg width="115" height="38" viewBox="0 0 115 38" fill="none" xmlns="http://www.w3.org/2000/svg">
<g clip-path="url(#clip0_246_51)">
<mask id="mask0_246_51" style="mask-type:luminance" maskUnits="userSpaceOnUse" x="0" y="21" width="12" height="17">
<path d="M0.103271 21.416H11.1998V37.4914H0.103271V21.416Z" fill="white"/>
</mask>
<g mask="url(#mask0_246_51)">
<path d="M6.98913 27.7573C5.68726 27.1468 4.62019 26.6573 4.62019 25.6656C4.62019 24.906 5.23017 24.3539 6.42935 24.3539C6.82425 24.3562 7.21794 24.3963 7.60523 24.4734C7.79542 24.5102 7.98786 24.5311 8.1815 24.536C9.22665 24.536 9.8221 23.9094 10.2153 22.7243L10.3787 22.2396C9.07119 21.7025 7.67257 21.4231 6.25901 21.4167C2.70507 21.4167 0.826673 23.6969 0.828783 26.0623C0.79532 27.0626 1.13679 28.0393 1.78694 28.8003C2.59126 29.6309 3.55442 30.2915 4.61882 30.743C6.08245 31.4611 7.40742 31.9928 7.40742 33.0569C7.40742 34.0022 6.43178 34.5381 5.1264 34.5381C3.86181 34.4785 2.63603 34.0833 1.5747 33.3931L0.102783 36.1467C1.70252 37.0674 3.52276 37.5341 5.36817 37.4964C8.68579 37.4964 11.1981 35.5931 11.1981 32.6645C11.1981 29.7534 8.87063 28.6737 6.9857 27.7615" fill="#E21837"/>
</g>
<path d="M19.9624 29.1161L25.9805 21.7382H21.6898L16.8914 28.1012H16.8207V21.7382H13.2869V37.3676H13.4977C15.0275 37.3676 16.8454 36.6643 16.8454 34.1077V30.5207H16.9162L21.8072 37.1721H26.3047L19.9624 29.1161Z" fill="#E21837"/>
<path d="M26.1795 4.99747C24.936 5.23097 23.0892 6.35982 23.0956 8.35869C23.1005 10.1726 24.5853 11.2733 24.5881 13.6478C24.5975 14.3825 24.4144 15.1068 24.0565 15.7486C23.6986 16.3903 23.1789 16.927 22.5488 17.3051C23.0211 17.264 23.4945 17.2424 23.9685 17.2404C24.5659 17.231 25.1632 17.2672 25.755 17.3487L31.3343 10.5004C29.9287 8.39715 28.1885 6.53788 26.1829 4.99609" fill="#E21837"/>
<path d="M30.8704 23.4929C31.5738 22.4007 31.6616 20.6578 31.7235 18.8819C31.7882 17.2255 32.1338 15.9785 34.3493 15.9708C34.8417 15.9708 35.3089 16.0369 36.1558 16.0334C38.5103 16.0245 40.8187 15.3801 42.8374 14.1681C39.3946 11.9512 35.4255 10.6859 31.3348 10.501C31.0161 11.3977 28.5436 18.27 28.3586 18.8235C28.7379 19.2789 29.0731 19.7693 29.3601 20.2878C29.9783 21.2978 30.4839 22.3723 30.8684 23.4922" fill="#E21837"/>
<path d="M19.0804 17.8797C18.7991 17.8797 18.6582 17.6933 18.6202 17.3684C18.5822 17.0434 17.1868 4.27436 16.9793 2.3416C16.9491 2.06027 16.8777 1.54053 16.8777 1.35696C16.8671 1.24796 16.9002 1.13918 16.9697 1.05453C17.0392 0.969884 17.1396 0.91625 17.2486 0.905402C17.2652 0.904417 17.2814 0.904417 17.298 0.905402C20.2294 1.44551 22.9978 2.65076 25.3905 4.42842C24.5288 4.64495 23.7613 5.13653 23.2042 5.82865C22.6472 6.52077 22.3311 7.37567 22.3038 8.2637C22.3115 10.3646 23.8154 11.5201 23.8231 13.628C23.835 17.0574 19.8942 17.8846 19.0783 17.8867" fill="#F37725"/>
<path d="M31.1916 24.4045C31.2378 24.5386 31.296 24.6683 31.3653 24.792C31.3968 24.8563 31.4455 24.9106 31.5061 24.9486C31.5668 24.9866 31.6365 25.007 31.7081 25.0073C31.8189 25.0001 31.9271 24.9704 32.0261 24.9201C32.3215 24.785 43.9779 19.3595 45.737 18.5486C45.9902 18.4262 46.475 18.2103 46.6333 18.1174C46.7038 18.0837 46.7633 18.0311 46.8057 17.9654C46.848 17.8997 46.8714 17.8235 46.873 17.7454C46.8715 17.665 46.8479 17.5865 46.8057 17.5182C45.8784 16.4065 44.7878 15.4423 43.5706 14.6584C41.3659 16.0053 38.8391 16.7341 36.2557 16.7684C35.4054 16.7684 35.2102 16.7129 34.6292 16.7143C32.9307 16.7213 32.5076 17.445 32.4492 18.9354C32.4379 19.2167 32.4344 19.5951 32.4183 20.0087C32.3634 21.3401 32.2072 23.1737 31.1902 24.4017" fill="#F37725"/>
<path d="M37.9961 37.3634C36.8313 37.3624 35.6733 37.186 34.561 36.8402L34.542 36.8289V24.4615H34.8789C35.3513 24.4506 35.8086 24.6277 36.1505 24.9538C36.3332 25.1523 36.4745 25.385 36.5664 25.6386C36.6583 25.8922 36.6989 26.1615 36.6858 26.4308V28.7518H36.6907C37.1649 28.6287 37.6524 28.5638 38.1424 28.5584C38.7026 28.5549 39.2594 28.6467 39.7889 28.8299C40.2979 29.0076 40.7649 29.2884 41.1604 29.6549C41.5982 30.0971 41.939 30.6257 42.1611 31.207C42.3832 31.7882 42.4817 32.4094 42.4503 33.0309C42.4721 33.6038 42.3795 34.1752 42.178 34.7119C41.9764 35.2485 41.6699 35.7397 41.2764 36.1565C40.4435 36.9369 39.3449 37.3711 38.2035 37.3712C38.1339 37.3684 38.0657 37.367 37.9961 37.3634ZM36.6822 30.4398V35.4926L36.7315 35.5038C37.0537 35.5829 37.3843 35.6226 37.7161 35.622C38.348 35.6382 38.9605 35.4029 39.4188 34.9676C39.8771 34.5323 40.1438 33.9329 40.1602 33.301C40.164 33.1889 40.1588 33.0767 40.1447 32.9655C40.1447 31.3225 39.2156 30.3076 37.7182 30.3076H37.6993C37.356 30.3078 37.0141 30.3522 36.6822 30.4398ZM69.2381 36.1516C68.8448 35.7349 68.5385 35.244 68.3371 34.7076C68.1356 34.1712 68.0431 33.6 68.065 33.0274C68.0334 32.4059 68.1319 31.7847 68.354 31.2034C68.5761 30.6221 68.917 30.0935 69.3549 29.6514C69.75 29.285 70.2167 29.0046 70.7257 28.8278C71.2542 28.6438 71.8104 28.552 72.3701 28.5563C72.857 28.5605 73.3416 28.6238 73.8133 28.7448H73.8302V26.4238C73.817 26.1555 73.8576 25.8872 73.9495 25.6348C74.0414 25.3824 74.1828 25.1509 74.3654 24.9538C74.5343 24.7919 74.7335 24.6651 74.9517 24.5806C75.1698 24.4961 75.4025 24.4556 75.6364 24.4615H75.9683V36.8289L75.9493 36.8338C74.8379 37.183 73.6799 37.3611 72.515 37.362C72.4446 37.362 72.3743 37.367 72.3089 37.367C71.1684 37.3657 70.0709 36.9309 69.2381 36.1516ZM70.3635 32.9655C70.3239 33.3045 70.3577 33.6479 70.4626 33.9727C70.5675 34.2974 70.7411 34.5957 70.9716 34.8474C71.202 35.0991 71.484 35.2982 71.7982 35.4312C72.1125 35.5643 72.4517 35.6282 72.7928 35.6185C73.1245 35.6195 73.4551 35.5803 73.7774 35.5017L73.826 35.4905V30.4398H73.8203C73.4837 30.3537 73.1375 30.3102 72.79 30.3104C71.2989 30.3076 70.3656 31.3281 70.3656 32.9662L70.3635 32.9655ZM53.6931 37.362C53.1227 37.387 52.5535 37.2932 52.0213 37.0865C51.4892 36.8798 51.0058 36.5648 50.6019 36.1615C49.8314 35.2788 49.4309 34.1331 49.4836 32.9627C49.4311 31.7934 49.8291 30.6485 50.5956 29.7639C50.999 29.3583 51.4826 29.0414 52.0154 28.8333C52.5483 28.6252 53.1187 28.5307 53.6902 28.5556C56.2877 28.5556 57.906 30.2436 57.906 32.9634C57.9525 34.1061 57.5716 35.2252 56.8377 36.1024C56.4564 36.5021 55.9981 36.8204 55.4903 37.038C54.9826 37.2556 54.436 37.368 53.8837 37.3684C53.8218 37.367 53.7571 37.3656 53.6931 37.362ZM51.6189 32.9627C51.6189 34.6359 52.4362 35.7099 53.6924 35.7099C54.971 35.7099 55.7679 34.6549 55.7679 32.9613C55.7679 31.2677 54.971 30.2063 53.6924 30.2063C52.4348 30.207 51.6189 31.2909 51.6189 32.9627ZM62.0353 37.3642C61.2838 37.3853 60.5511 37.1277 59.978 36.6411C59.7141 36.3992 59.5053 36.1034 59.3659 35.7736C59.2264 35.4439 59.1596 35.088 59.1699 34.7302C59.1699 32.8881 60.7714 31.831 63.5629 31.831H64.2663V31.537C64.2663 30.6635 63.6586 30.1627 62.6001 30.1627C62.1429 30.1659 61.6902 30.252 61.2637 30.4166C61.0468 30.5061 60.8165 30.5589 60.5822 30.5728C60.1243 30.5728 59.9358 30.2359 59.7762 29.9398C59.7473 29.8919 59.7234 29.8455 59.6981 29.7991C59.6498 29.7121 59.601 29.6254 59.5518 29.5389C60.5355 28.9035 61.6801 28.5619 62.8512 28.5542C65.2038 28.5542 66.4473 29.6394 66.4473 31.6911V34.6521C66.4195 35.4417 66.5042 36.2313 66.6991 36.997L66.7089 37.0336C66.3838 37.1202 66.0494 37.1674 65.713 37.1743C65.4389 37.1878 65.1678 37.1127 64.9397 36.9601C64.7117 36.8074 64.5389 36.5853 64.447 36.3267C64.4215 36.348 64.3979 36.3715 64.3767 36.3971C64.0875 36.7038 63.7387 36.9483 63.3517 37.1154C62.9647 37.2826 62.5476 37.3689 62.126 37.3691L62.0353 37.3642ZM61.3889 34.4559C61.3857 34.7705 61.5074 35.0736 61.7274 35.2986C61.9473 35.5237 62.2475 35.6524 62.5621 35.6565C62.6053 35.6568 62.6485 35.6547 62.6915 35.6501C63.2337 35.6358 63.7567 35.4461 64.1819 35.1093C64.2095 35.088 64.2387 35.0687 64.2691 35.0516V33.2862H63.1592C61.9382 33.282 61.3889 33.8707 61.3889 34.4552V34.4559ZM43.9167 37.1735V30.8189C43.9229 30.1318 43.843 29.4466 43.679 28.7793C43.8637 28.7377 44.0523 28.7157 44.2417 28.7139C44.5804 28.6856 44.9186 28.7741 45.2 28.9646C45.4815 29.1551 45.6893 29.4362 45.789 29.7611C46.3797 29.0891 47.1982 28.6594 48.0868 28.5549C48.5772 28.5183 49.0661 28.6433 49.4787 28.9108L48.6917 30.6895C48.3968 30.5147 48.0588 30.4262 47.7161 30.4342C47.0949 30.4789 46.5097 30.7426 46.0647 31.1783V37.1743L43.9167 37.1735Z" fill="#F37725"/>
<mask id="mask1_246_51" style="mask-type:luminance" maskUnits="userSpaceOnUse" x="106" y="24" width="9" height="14">
<path d="M106.112 24.4158H114.044V37.3613H106.112V24.4158Z" fill="white"/>
</mask>
<g mask="url(#mask1_246_51)">
<path d="M110.58 37.3614C109.978 37.389 109.378 37.2958 108.812 37.0873C108.247 36.8788 107.729 36.5592 107.29 36.1474C106.894 35.7295 106.586 35.2368 106.384 34.6982C106.182 34.1596 106.09 33.5861 106.112 33.0112C106.08 32.388 106.179 31.765 106.401 31.182C106.624 30.5989 106.966 30.0688 107.405 29.6254C107.802 29.2576 108.271 28.9759 108.783 28.7983C109.313 28.6142 109.872 28.5224 110.433 28.5268C110.922 28.5307 111.408 28.5942 111.881 28.716L111.897 28.7202V26.3887C111.883 26.1185 111.924 25.8484 112.016 25.5941C112.109 25.3397 112.251 25.1063 112.434 24.9075C112.604 24.7455 112.803 24.6186 113.022 24.5341C113.241 24.4496 113.474 24.4092 113.709 24.4151H114.048V36.8247L114.026 36.8318C112.911 37.1812 111.749 37.3598 110.58 37.3614ZM110.862 30.2823C109.36 30.2823 108.426 31.3042 108.426 32.9493C108.353 33.5791 108.534 34.2119 108.928 34.7084C109.322 35.205 109.898 35.5247 110.527 35.5974C110.638 35.6103 110.75 35.6152 110.862 35.6122C111.195 35.6127 111.528 35.5731 111.852 35.494L111.9 35.4828V30.4132C111.56 30.3261 111.212 30.2824 110.861 30.283L110.862 30.2823Z" fill="#F37725"/>
</g>
<path d="M81.8918 37.3627C80.728 37.3613 79.5711 37.1842 78.4603 36.8373L78.4377 36.8288V24.4621H78.7746C79.0088 24.4562 79.2419 24.4966 79.4603 24.5811C79.6788 24.6656 79.8784 24.7925 80.0477 24.9545C80.2305 25.1527 80.3719 25.3855 80.4636 25.6391C80.5552 25.8927 80.5953 26.1621 80.5815 26.4315V28.7525H80.5878C81.0618 28.628 81.5495 28.5633 82.0395 28.5597C82.5996 28.5553 83.1562 28.6468 83.6853 28.8305C84.1949 29.0074 84.6623 29.2878 85.0582 29.6541C85.4959 30.0963 85.8364 30.6249 86.0579 31.2063C86.2794 31.7876 86.3771 32.4089 86.3446 33.0301C86.3675 33.6031 86.2755 34.1748 86.0742 34.7117C85.8728 35.2486 85.5661 35.7398 85.1722 36.1564C84.3391 36.9364 83.2405 37.3702 82.0993 37.3697L81.8918 37.3627ZM80.5794 30.4405V35.4939L80.6293 35.5052C80.9516 35.5842 81.2822 35.6239 81.614 35.6233C81.9268 35.6314 82.2381 35.5777 82.5301 35.4654C82.8221 35.3531 83.0891 35.1843 83.3159 34.9688C83.5427 34.7533 83.7248 34.4951 83.8517 34.2092C83.9787 33.9233 84.0481 33.6151 84.056 33.3023C84.0593 33.19 84.0544 33.0777 84.0412 32.9661C84.0412 31.3224 83.1128 30.3082 81.6161 30.3082H81.5978C81.2541 30.3091 80.9119 30.3535 80.5794 30.4405ZM90.4908 37.3634C89.7394 37.3854 89.0065 37.1278 88.4342 36.6403C88.1709 36.3993 87.9624 36.1045 87.8228 35.7759C87.6833 35.4473 87.6159 35.0926 87.6254 34.7357C87.6254 32.8916 89.2262 31.8359 92.0177 31.8359H92.721V31.5398C92.721 30.6655 92.1141 30.164 91.0548 30.164C90.5978 30.1685 90.1452 30.2547 89.7185 30.4187C89.5015 30.508 89.2712 30.5608 89.037 30.5748C88.5735 30.5748 88.3899 30.2358 88.2281 29.9376C88.2039 29.8915 88.179 29.8458 88.1536 29.8004L88.0052 29.5409C88.9892 28.9026 90.1359 28.5606 91.3087 28.5555C93.6621 28.5555 94.9063 29.6401 94.9063 31.691V34.6534C94.8781 35.4427 94.9624 36.2321 95.1567 36.9976L95.1665 37.0342C94.8423 37.1207 94.5089 37.1679 94.1734 37.1749C93.8999 37.1882 93.6292 37.1135 93.4013 36.9615C93.1734 36.8096 93.0003 36.5885 92.9074 36.3309C92.8927 36.3435 92.8701 36.366 92.8371 36.4012C92.5482 36.7083 92.1994 36.9529 91.8123 37.12C91.4253 37.287 91.008 37.373 90.5864 37.3725L90.4908 37.3634ZM89.8507 34.4572C89.8488 34.613 89.8776 34.7677 89.9356 34.9124C89.9935 35.0571 90.0794 35.1889 90.1884 35.3003C90.2974 35.4117 90.4273 35.5005 90.5707 35.5616C90.714 35.6227 90.8681 35.6549 91.0239 35.6564C91.0671 35.6579 91.1103 35.6562 91.1533 35.6515C91.6944 35.6354 92.216 35.4455 92.6409 35.1099C92.6774 35.0846 92.7063 35.0635 92.7267 35.0522V33.284H91.6217C90.3944 33.2805 89.8507 33.8699 89.8507 34.4558V34.4572ZM102.521 37.1742V32.2375C102.53 32.1597 102.534 32.0815 102.533 32.0033C102.521 31.5663 102.338 31.1515 102.021 30.85C101.705 30.5485 101.282 30.3847 100.845 30.3947C100.189 30.4655 99.5777 30.7616 99.1157 31.2324V37.1728H96.9671V31.4554C96.9884 30.5714 96.907 29.688 96.7244 28.8228C96.9891 28.7618 97.259 28.726 97.5304 28.7159C97.8406 28.6896 98.1506 28.768 98.4109 28.9386C98.6713 29.1092 98.8669 29.3621 98.9666 29.6569C99.6502 28.964 100.574 28.5599 101.546 28.5281C101.679 28.5193 101.812 28.5193 101.945 28.5281C102.725 28.5886 103.45 28.9568 103.96 29.5516C104.469 30.1464 104.722 30.9192 104.662 31.7001V37.1707L102.521 37.1742Z" fill="#F37725"/>
</g>
<defs>
<clipPath id="clip0_246_51">
<rect width="113.94" height="36.8167" fill="white" transform="translate(0.103271 0.90332)"/>
</clipPath>
</defs>
</svg>
