<svg width="120" height="25" viewBox="0 0 120 25" fill="none" xmlns="http://www.w3.org/2000/svg">
<mask id="mask0_93_61" style="mask-type:alpha" maskUnits="userSpaceOnUse" x="0" y="0" width="120" height="25">
<rect y="-1.90735e-06" width="119.872" height="25" fill="#D9D9D9"/>
</mask>
<g mask="url(#mask0_93_61)">
<rect x="27.1565" y="-2.88462" width="4.80769" height="32.1029" transform="rotate(28 27.1565 -2.88462)" fill="#FF9998"/>
<rect x="15.0714" y="-2.88462" width="4.80769" height="32.1029" transform="rotate(28 15.0714 -2.88462)" fill="#FF9998"/>
<path d="M109.47 24.5856L114.316 0.414362L119.958 0.414362L115.112 24.5856H109.47Z" fill="#526897"/>
<path d="M84.0154 24.5856L88.8616 0.414362L98.7269 0.414362C101.75 0.414362 104.081 1.07044 105.719 2.3826C107.381 3.69475 108.212 5.53637 108.212 7.90746C108.212 9.93324 107.727 11.6943 106.758 13.1906C105.812 14.6639 104.45 15.8034 102.673 16.6091C100.919 17.4148 98.8423 17.8177 96.4423 17.8177H88.55L91.4923 15.366L89.6577 24.5856H84.0154ZM99.5923 24.5856L94.6423 15.8149H100.527L105.512 24.5856H99.5923ZM91.3539 16.0221L89.4154 13.3633H96.65C98.5193 13.3633 99.9616 12.9489 100.977 12.1202C102.015 11.2684 102.535 10.0368 102.535 8.42541C102.535 7.25138 102.131 6.38812 101.323 5.83563C100.538 5.26013 99.4308 4.97237 98 4.97237H91.1808L94.1231 2.24447L91.3539 16.0221Z" fill="#526897"/>
<path d="M67.3741 25C64.928 25 62.8164 24.5626 61.0395 23.6878C59.2857 22.7901 57.9357 21.5585 56.9895 19.9931C56.0434 18.4047 55.5703 16.5746 55.5703 14.5028C55.5703 12.4309 55.928 10.5203 56.6434 8.77072C57.3587 6.99816 58.3741 5.46731 59.6895 4.17817C61.028 2.86602 62.6087 1.84162 64.4318 1.10497C66.278 0.368323 68.3203 -1.90735e-06 70.5587 -1.90735e-06C73.0049 -1.90735e-06 75.1049 0.448892 76.8587 1.34668C78.6357 2.22145 79.9972 3.45304 80.9434 5.04143C81.8895 6.60681 82.3626 8.42541 82.3626 10.4972C82.3626 12.5691 82.0049 14.4913 81.2895 16.2638C80.5741 18.0134 79.5472 19.5442 78.2087 20.8564C76.8934 22.1455 75.3126 23.1584 73.4664 23.895C71.6434 24.6317 69.6126 25 67.3741 25ZM67.8587 20.2348C69.2203 20.2348 70.4434 19.9931 71.528 19.5097C72.6357 19.0032 73.5703 18.3126 74.3318 17.4378C75.0934 16.5631 75.6703 15.5617 76.0626 14.4337C76.478 13.2827 76.6857 12.0741 76.6857 10.808C76.6857 9.61096 76.4318 8.56353 75.9241 7.66574C75.4164 6.74493 74.6664 6.03131 73.6741 5.52486C72.7049 5.01841 71.5049 4.76519 70.0741 4.76519C68.7126 4.76519 67.4895 5.01841 66.4049 5.52486C65.3203 6.00829 64.3857 6.68738 63.6011 7.56215C62.8395 8.43692 62.251 9.44981 61.8357 10.6008C61.4434 11.7288 61.2472 12.9259 61.2472 14.192C61.2472 15.389 61.5011 16.448 62.0087 17.3688C62.5395 18.2666 63.2895 18.9687 64.2587 19.4751C65.2511 19.9816 66.4511 20.2348 67.8587 20.2348Z" fill="#526897"/>
<path d="M41.1808 25C39.8654 25 38.5847 24.8734 37.3385 24.6202C36.1154 24.39 34.9962 24.0677 33.9808 23.6533C32.9885 23.239 32.1462 22.7901 31.4539 22.3066L33.7385 17.9903C34.5 18.5198 35.3077 18.9802 36.1616 19.3715C37.0385 19.7399 37.95 20.0276 38.8962 20.2348C39.8424 20.419 40.7885 20.511 41.7347 20.511C42.7731 20.511 43.6616 20.3959 44.4 20.1657C45.1616 19.9355 45.7385 19.6133 46.1308 19.1989C46.5462 18.7845 46.7539 18.2781 46.7539 17.6796C46.7539 17.1271 46.5347 16.6782 46.0962 16.3329C45.6577 15.9876 45.0808 15.6998 44.3654 15.4696C43.6731 15.2164 42.9 14.9747 42.0462 14.7445C41.1923 14.5143 40.327 14.2495 39.45 13.9503C38.5962 13.628 37.8116 13.2366 37.0962 12.7762C36.4039 12.2928 35.8385 11.6828 35.4 10.9461C34.9616 10.2095 34.7423 9.28867 34.7423 8.1837C34.7423 6.52624 35.1923 5.08747 36.0923 3.8674C37.0154 2.64733 38.3077 1.7035 39.9693 1.03591C41.6308 0.345302 43.5808 -1.90735e-06 45.8193 -1.90735e-06C47.4577 -1.90735e-06 49.0039 0.18416 50.4577 0.552483C51.9116 0.897787 53.1577 1.40423 54.1962 2.07182L52.0847 6.35359C51.1616 5.73204 50.1347 5.27164 49.0039 4.97237C47.8731 4.65009 46.7077 4.48895 45.5077 4.48895C44.4231 4.48895 43.4885 4.61556 42.7039 4.86878C41.9423 5.12201 41.3539 5.47882 40.9385 5.93922C40.5462 6.37661 40.35 6.88306 40.35 7.45856C40.35 8.03407 40.5577 8.50598 40.9731 8.87431C41.4116 9.21961 41.9885 9.51888 42.7039 9.7721C43.4193 10.0023 44.2039 10.2325 45.0577 10.4627C45.9116 10.6929 46.7654 10.9576 47.6193 11.2569C48.4731 11.5562 49.2577 11.936 49.9731 12.3964C50.6885 12.8568 51.2654 13.4438 51.7039 14.1575C52.1423 14.8481 52.3616 15.7228 52.3616 16.7818C52.3616 18.4392 51.9 19.8895 50.977 21.1326C50.0539 22.3527 48.75 23.308 47.0654 23.9986C45.4039 24.6662 43.4423 25 41.1808 25Z" fill="#526897"/>
</g>
</svg>
