<svg xmlns="http://www.w3.org/2000/svg" xmlns:xlink="http://www.w3.org/1999/xlink" width="172" height="52" viewBox="0 0 172 52">
  <defs>
    <clipPath id="clip-path">
      <rect id="사각형_379" data-name="사각형 379" width="172" height="52" transform="translate(858 52)" fill="#fff" stroke="#707070" stroke-width="1"/>
    </clipPath>
  </defs>
  <g id="logo" transform="translate(-858 -52)" clip-path="url(#clip-path)">
    <g id="logo-2" data-name="logo" transform="translate(860.574 52.858)">
      <path id="패스_373" data-name="패스 373" d="M101.319,330.02a11.787,11.787,0,0,1,.52-1.505,2.227,2.227,0,0,1,2.547-1.306,2.492,2.492,0,0,1,1.731,2.476,1.883,1.883,0,0,1-.411.738,5.941,5.941,0,0,1-.539.511,1.453,1.453,0,0,0-.19,2.02,3.707,3.707,0,0,0,3.206,1.565c3.089-.054,5.517-1.569,7.69-3.573a29.212,29.212,0,0,0,5.96-8.385c1.442-2.815,2.74-5.7,4.108-8.557a92.231,92.231,0,0,1,6.589-12.013,34.93,34.93,0,0,1,6.463-7.331.977.977,0,0,0,.1-.121c-.754,0-1.481-.055-2.2.009a21.476,21.476,0,0,0-15.911,9.021,18.061,18.061,0,0,0-3.036,5.964,5.718,5.718,0,0,0-.161,2.655,2.776,2.776,0,0,0,3.075,2.229,4.7,4.7,0,0,0,2.762-1.084c.021-.018.042-.045.066-.048.2-.029.406-.054.609-.081-.059.191-.059.441-.185.565a8.293,8.293,0,0,1-4.2,2.174,4.74,4.74,0,0,1-2.566-.154A3.88,3.88,0,0,1,114.68,312a9.024,9.024,0,0,1,1.3-4.925A25.814,25.814,0,0,1,126.7,296.761a27.186,27.186,0,0,1,8.949-3.037,22.314,22.314,0,0,1,4.783-.246.712.712,0,0,0,.392-.074,10.074,10.074,0,0,1,3.243-1.375h.083c.059.032.141.05.174.1a1.263,1.263,0,0,1,.248.487c.008.07-.225.2-.367.249-.577.213-1.162.406-1.742.612a.659.659,0,0,0-.164.11c1.1.309,2.218.567,3.3.943a9.58,9.58,0,0,1,4.951,3.558,8.618,8.618,0,0,1-.027,9.755,12.918,12.918,0,0,1-7.61,5.276,25.667,25.667,0,0,1-8.606.817,11.6,11.6,0,0,1-1.976-.4,2.962,2.962,0,0,1-.585-.285c.111-.336.28-.512.6-.414a10.534,10.534,0,0,0,5.118.053,15.288,15.288,0,0,0,6.1-2.286,10.246,10.246,0,0,0,4.368-5.625,8.6,8.6,0,0,0-.15-5.635,7.232,7.232,0,0,0-5.1-4.327c-1.627-.481-1.638-.466-2.762.786a38.5,38.5,0,0,0-5.116,7.642,98.072,98.072,0,0,0-4.906,10.95,50.038,50.038,0,0,1-5.855,11.164,25.52,25.52,0,0,1-7.211,7.038,16.664,16.664,0,0,1-10.049,2.536,8.5,8.5,0,0,1-2.889-.642,4.084,4.084,0,0,1-2.489-3.127,2.417,2.417,0,0,0-.087-.268Z" transform="translate(-101.319 -292.029)" fill="#a3cdb8"/>
      <path id="패스_374" data-name="패스 374" d="M318.923,294.541c-1.013.046-2.031.039-3.037.147a20.45,20.45,0,0,0-10.5,4.287,21.237,21.237,0,0,0-7.426,10.12,6.286,6.286,0,0,0-.314,3.171,2.764,2.764,0,0,0,2.431,2.194,4.7,4.7,0,0,0,3.353-1.012c.22-.167.5-.41.721-.153s-.071.48-.26.649a7.8,7.8,0,0,1-4.778,2.142c-3.173.184-4.708-1.881-4.565-4.77a11.467,11.467,0,0,1,2.326-5.878A26.981,26.981,0,0,1,308.4,295.93a25.609,25.609,0,0,1,7.795-2.218c1.366-.145,2.751-.105,4.127-.162a1.4,1.4,0,0,0,.5-.148c.839-.378,1.668-.776,2.511-1.142a1.037,1.037,0,0,1,.643-.084c.184.054.321.269.479.413-.122.116-.225.282-.371.34-.6.235-1.209.436-1.814.653a.765.765,0,0,0-.151.11c.819.2,1.622.341,2.4.581a11.26,11.26,0,0,1,4.995,2.794,8.115,8.115,0,0,1,2.37,6.306,9.917,9.917,0,0,1-4.619,7.725,15.715,15.715,0,0,1-6.765,2.6c-.556.091-1.115.167-1.783.266l.437.26a11.752,11.752,0,0,1,3.591,3.01,9.176,9.176,0,0,1,1.777,5.485,17.309,17.309,0,0,1-.511,5.119A11.48,11.48,0,0,1,321,332.563a12.332,12.332,0,0,1-6.537,3.312,19.249,19.249,0,0,1-5.138.416,9.9,9.9,0,0,1-5.517-1.858,4.333,4.333,0,0,1-1.587-4.63,3.418,3.418,0,0,1,1.462-1.941,1.766,1.766,0,0,1,2.4.259,2.327,2.327,0,0,1,.853,1.639,1.544,1.544,0,0,1-.7,1.331,1.645,1.645,0,0,0-.389,2.674,4.035,4.035,0,0,0,3.853,1.432c4.159-.456,9.341-3.934,10.613-9.21a11.673,11.673,0,0,0-.522-7.834,6.817,6.817,0,0,0-2.907-3.059,8.906,8.906,0,0,0-4.022-1.073,2.846,2.846,0,0,1-.841-.192.732.732,0,0,1-.147-1.352,2.38,2.38,0,0,1,1.612-.39,9.93,9.93,0,0,1,2.948.758,1.809,1.809,0,0,0,.9.106,14.541,14.541,0,0,0,7.789-3.619,9.275,9.275,0,0,0,3.067-6.815A7.278,7.278,0,0,0,322.22,295c-1.349-.31-1.355-.315-2.279.7a37,37,0,0,0-4.946,7.213,96.432,96.432,0,0,0-5.255,11.61,50.461,50.461,0,0,1-5.629,10.82,25.3,25.3,0,0,1-7.819,7.572,16.541,16.541,0,0,1-9.664,2.291,8,8,0,0,1-3.22-.815,4.326,4.326,0,0,1-1.561-6.068,2.247,2.247,0,0,1,2.539-1.014,2.639,2.639,0,0,1,1.623,2.257,2.005,2.005,0,0,1-.357.851,1.94,1.94,0,0,1-.421.392,1.609,1.609,0,0,0-.1,2.582,4.244,4.244,0,0,0,3.879,1.145,12.377,12.377,0,0,0,6.8-3.582,29.888,29.888,0,0,0,5.971-8.479c1.473-2.893,2.814-5.853,4.215-8.783a90.472,90.472,0,0,1,6.271-11.438,35.358,35.358,0,0,1,6.542-7.481c.049-.041.094-.087.141-.131Z" transform="translate(-203.368 -292.099)" fill="#a3cdb8"/>
      <path id="패스_375" data-name="패스 375" d="M202.824,349.76c-2.181,2.7-4.374,5.4-6.533,8.116a11.626,11.626,0,0,0-1.089,1.789c-.152.286-.257.719.061.907a1.236,1.236,0,0,0,.933,0,8.05,8.05,0,0,0,3.07-2.124c1.42-1.54,2.786-3.129,4.165-4.707.554-.633,1.107-1.269,1.611-1.94a10.522,10.522,0,0,0,.838-1.415,1.1,1.1,0,0,1,1.067-.686c.784,0,1.568-.106,2.353-.109.288,0,.768.1.821.27a1.246,1.246,0,0,1-.238.893,49.13,49.13,0,0,1-4.4,5.534,14.649,14.649,0,0,0-2.292,3.424,3.409,3.409,0,0,0-.143.971,4.532,4.532,0,0,0,.94-.059,11.573,11.573,0,0,0,4.91-3.023,35.128,35.128,0,0,0,4.014-4.935c.348-.479.713-.949,1.107-1.391a1.693,1.693,0,0,0,.482-1.15.414.414,0,0,1,.419-.465c1.239-.057,2.478-.094,3.717-.134a.745.745,0,0,1,.208.058,1.637,1.637,0,0,1-.273,1.375c-.619.791-1.279,1.55-1.914,2.329q-4.284,5.259-8.565,10.52a17.346,17.346,0,0,1-11.166,6.174,13.885,13.885,0,0,1-4.614.1,7.328,7.328,0,0,1-1.8-.573,1.464,1.464,0,0,1-.963-1.5,1.612,1.612,0,0,1,1.031-1.382,2.324,2.324,0,0,1,2,0,.9.9,0,0,1,.4,1.426c-.6.838-.441,1.226.577,1.457a5.815,5.815,0,0,0,3.481-.372,17.221,17.221,0,0,0,6.837-5.078c.968-1.147,1.849-2.366,2.77-3.553l-.08-.1c-.116.069-.234.135-.347.207a9.521,9.521,0,0,1-3.809,1.618,6.023,6.023,0,0,1-2.04-.082,1.807,1.807,0,0,1-1.364-2.289c.014-.093.038-.184.072-.341-.372.282-.692.533-1.02.773a9.34,9.34,0,0,1-4.04,1.793,3.376,3.376,0,0,1-1.068.016,1.749,1.749,0,0,1-1.361-2.055c.019-.274.032-.549.054-.915-.182.129-.309.216-.433.307a17.3,17.3,0,0,1-4.524,2.623,5.9,5.9,0,0,1-1.936.307,2.453,2.453,0,0,1-2.4-2.292c-.015-.135-.027-.269-.048-.478-.168.124-.3.216-.423.311a10.189,10.189,0,0,1-5.022,2.168,2.217,2.217,0,0,1-2.064-.581,2.028,2.028,0,0,1-.337-2.035,7.745,7.745,0,0,1,1.055-2.306c1.47-1.945,3.039-3.816,4.584-5.7q3.644-4.449,7.308-8.882a1.512,1.512,0,0,0,.43-1.166c-.038-.327.123-.427.428-.45,1.1-.082,2.2-.186,3.3-.279.279-.024.677-.168.77.164a1.287,1.287,0,0,1-.145.99c-.951,1.285-1.955,2.531-2.954,3.78q-4.959,6.2-9.924,12.4a7.683,7.683,0,0,0-.829,1.182,1.252,1.252,0,0,0-.129.883c.12.343.531.3.842.244a2.232,2.232,0,0,0,.777-.255c.824-.5,1.629-1.025,2.437-1.547a.488.488,0,0,0,.183-.213,11.632,11.632,0,0,1,3.177-4.178,17.974,17.974,0,0,1,8.551-4.44,4.783,4.783,0,0,1,2.254.032,2.262,2.262,0,0,1,1.373,1.044,5.013,5.013,0,0,0,.581-.726.833.833,0,0,1,.886-.426c1.113.019,2.227.007,3.341.007Zm-15.615,11.067a6.093,6.093,0,0,0,1.437-.457,15.849,15.849,0,0,0,2.717-1.926c1.288-1.237,2.461-2.6,3.634-3.945a19.061,19.061,0,0,0,1.4-1.987,3.167,3.167,0,0,0,.313-.716,1.06,1.06,0,0,0-.085-1.167,1.127,1.127,0,0,0-1.228-.278,11.835,11.835,0,0,0-2.275,1.037,23.416,23.416,0,0,0-5.727,5.556,10.591,10.591,0,0,0-1.349,2.247C185.671,360.054,186.237,360.748,187.208,360.827Z" transform="translate(-142.743 -319.607)" fill="#a3cdb8"/>
      <path id="패스_376" data-name="패스 376" d="M396.391,355.949c-.183.195-.363.392-.549.584a22.125,22.125,0,0,1-7.161,5.1,8.04,8.04,0,0,1-4.736.555,2.967,2.967,0,0,1-2.539-4.007,9.2,9.2,0,0,1,2.089-3.85,13.233,13.233,0,0,1,7.512-4.516,7.044,7.044,0,0,1,2.832-.132,2.356,2.356,0,0,1,1.445,3.929,9.771,9.771,0,0,1-3.272,2.613,19.461,19.461,0,0,1-7.372,1.974c-.08.007-.159.018-.233.026a2.23,2.23,0,0,0,2.077,2.39,6.588,6.588,0,0,0,3.858-.828,22.075,22.075,0,0,0,6.591-5.122,4.243,4.243,0,0,0,.657-1.179,47.742,47.742,0,0,1,2.708-5.565c1.946-3.3,4.95-5.205,8.429-6.511a9.939,9.939,0,0,1,5.4-.573,3.391,3.391,0,0,1,2.587,1.588,1.675,1.675,0,0,1,.179,1.47,1.564,1.564,0,0,1-2.4.447.915.915,0,0,1-.135-1.072,2.393,2.393,0,0,1,.258-.371.908.908,0,0,0-.413-1.547,3.724,3.724,0,0,0-1.58-.152,9.819,9.819,0,0,0-5.927,3.259,30.791,30.791,0,0,0-3.976,5.923c-1.413,2.475-2.887,4.916-4.356,7.358a10.314,10.314,0,0,1-2.7,2.882c-.065.049-.124.106-.2.17a1.836,1.836,0,0,0,1.38.734,9.436,9.436,0,0,0,6.667-1.66,14.719,14.719,0,0,0,3.885-3.8,6.224,6.224,0,0,0,1.16-3.432,2.856,2.856,0,0,0-.041-.7,1.628,1.628,0,0,0-2.331-1.3,4.2,4.2,0,0,0-2.252,1.455.6.6,0,0,1-.239.221.45.45,0,0,1-.34-.019.3.3,0,0,1-.045-.287,2.67,2.67,0,0,1,.437-.738,4.984,4.984,0,0,1,5.487-1.3,3.372,3.372,0,0,1,2.072,3.966,9.2,9.2,0,0,1-5.016,6.651,16.959,16.959,0,0,1-8.959,1.83,6.452,6.452,0,0,1-2.853-.758.585.585,0,0,0-.471.041,3.006,3.006,0,0,1-2.89.119c-.257-.127-.521-.3-.322-.631a.461.461,0,0,1,.751-.082,1.51,1.51,0,0,0,2.311-.444,20.482,20.482,0,0,0,2.349-4.024c.093-.207.179-.417.269-.625Zm-11.98,1.686.127.084a12.888,12.888,0,0,0,7.257-3.775,4.813,4.813,0,0,0,1.294-2.4.679.679,0,0,0-.584-.91,2.861,2.861,0,0,0-1.767.257,11.434,11.434,0,0,0-6.326,6.746Z" transform="translate(-260.152 -319.634)" fill="#a3cdb8"/>
      <path id="패스_377" data-name="패스 377" d="M453.281,369.89a2.221,2.221,0,0,0,2.06,2.4,6.489,6.489,0,0,0,3.783-.789,22.278,22.278,0,0,0,6.778-5.275c.082-.092.15-.2.226-.3s.151-.188.241-.3c.329.239.131.467,0,.633-.494.611-.991,1.222-1.527,1.795a22.15,22.15,0,0,1-7.108,5.172,8.3,8.3,0,0,1-5.008.621,2.93,2.93,0,0,1-2.5-3.758,9.394,9.394,0,0,1,2.523-4.525,13.151,13.151,0,0,1,7.125-4.081,6.933,6.933,0,0,1,2.789-.136,2.376,2.376,0,0,1,1.4,4.064,10.437,10.437,0,0,1-3.612,2.706,19.963,19.963,0,0,1-6.926,1.751C453.435,369.88,453.355,369.885,453.281,369.89Zm-.014-.584.122.086a12.912,12.912,0,0,0,7.206-3.7,5.054,5.054,0,0,0,1.3-2.222c.225-.818-.082-1.28-.927-1.191a6.024,6.024,0,0,0-1.926.536,12.012,12.012,0,0,0-5.124,5A13,13,0,0,0,453.267,369.307Z" transform="translate(-299.223 -331.309)" fill="#a3cdb8"/>
      <path id="패스_378" data-name="패스 378" d="M202.421,373.469c-.972-.079-1.538-.774-1.161-1.637a10.591,10.591,0,0,1,1.349-2.247,23.417,23.417,0,0,1,5.727-5.556,11.84,11.84,0,0,1,2.275-1.037,1.127,1.127,0,0,1,1.228.278,1.06,1.06,0,0,1,.085,1.167,3.168,3.168,0,0,1-.313.716,19.064,19.064,0,0,1-1.4,1.987c-1.173,1.349-2.347,2.708-3.634,3.945a15.837,15.837,0,0,1-2.716,1.927A6.084,6.084,0,0,1,202.421,373.469Z" transform="translate(-157.956 -332.248)" fill="#fff"/>
      <path id="패스_379" data-name="패스 379" d="M388.536,370.611a11.432,11.432,0,0,1,6.326-6.746,2.862,2.862,0,0,1,1.767-.257.679.679,0,0,1,.584.91,4.814,4.814,0,0,1-1.294,2.4,12.889,12.889,0,0,1-7.257,3.775Z" transform="translate(-264.277 -332.61)" fill="#fff"/>
      <path id="패스_380" data-name="패스 380" d="M457.38,370.629a13,13,0,0,1,.653-1.491,12.011,12.011,0,0,1,5.124-5,6.025,6.025,0,0,1,1.926-.536c.845-.089,1.152.373.927,1.191a5.055,5.055,0,0,1-1.3,2.222,12.911,12.911,0,0,1-7.206,3.7Z" transform="translate(-303.336 -332.631)" fill="#fff"/>
    </g>
  </g>
</svg>
