<svg width="121" height="37" viewBox="0 0 121 37" fill="none" xmlns="http://www.w3.org/2000/svg">
<g clip-path="url(#clip0_246_80)">
<mask id="mask0_246_80" style="mask-type:luminance" maskUnits="userSpaceOnUse" x="0" y="0" width="121" height="37">
<path d="M121 0.313354H0.0266113V36.8867H121V0.313354Z" fill="white"/>
</mask>
<g mask="url(#mask0_246_80)">
<path d="M1.83688 27.6372C1.9348 27.2765 2.05698 26.9229 2.20262 26.5787C2.34566 26.2395 2.60361 25.9615 2.9312 25.7935C3.25879 25.6255 3.63507 25.5783 3.99401 25.6602C4.35964 25.7771 4.67678 26.0107 4.89672 26.3253C5.11666 26.6399 5.22724 27.0181 5.21148 27.4016C5.15567 27.5943 5.05683 27.7718 4.92241 27.9207C4.80366 28.0482 4.67705 28.1683 4.54331 28.2801C4.34012 28.4526 4.21242 28.6978 4.18746 28.9632C4.16249 29.2287 4.24223 29.4933 4.40968 29.7008C4.66261 30.0591 5.00185 30.3478 5.396 30.5402C5.79015 30.7326 6.22646 30.8225 6.66456 30.8015C8.83716 30.7635 10.5449 29.698 12.0732 28.2885C13.8084 26.5861 15.2276 24.5894 16.2651 22.3911C17.2793 20.4112 18.1922 18.382 19.1544 16.3726C20.4875 13.4452 22.0365 10.6211 23.7886 7.92348C25.0547 6.00024 26.5849 4.26455 28.3343 2.76735C28.36 2.74091 28.3835 2.71245 28.4046 2.68224C27.8743 2.68224 27.363 2.64356 26.8573 2.68858C24.6399 2.85718 22.4872 3.5133 20.5527 4.61008C18.6182 5.70685 16.9498 7.21722 15.6665 9.03334C14.6997 10.2863 13.9755 11.709 13.5312 13.228C13.3472 13.8329 13.3084 14.4727 13.418 15.0954C13.5118 15.5826 13.7876 16.0158 14.1893 16.307C14.591 16.5982 15.0885 16.7255 15.5807 16.6631C16.2936 16.6254 16.9751 16.3579 17.5233 15.9007C17.5381 15.888 17.5529 15.869 17.5698 15.8669C17.7104 15.8465 17.8553 15.829 17.9981 15.81C17.9566 15.9443 17.9566 16.1201 17.868 16.2074C17.0526 16.9929 16.0262 17.5242 14.914 17.7364C14.3139 17.8672 13.6893 17.8297 13.1092 17.6281C12.5516 17.4446 12.068 17.0863 11.7303 16.6062C11.3925 16.1261 11.2185 15.5499 11.2341 14.9631C11.1999 13.7447 11.5174 12.5421 12.1485 11.4992C13.8954 8.39371 16.5176 5.87086 19.6882 4.24504C21.6454 3.17104 23.7757 2.44812 25.9823 2.10903C27.0942 1.93083 28.2221 1.87282 29.3464 1.936C29.4414 1.94528 29.537 1.92722 29.6221 1.88395C30.3197 1.43014 31.0918 1.10278 31.903 0.91687H31.9614C32.0028 0.939377 32.0605 0.952041 32.0837 0.987208C32.1662 1.08728 32.2257 1.20419 32.2582 1.32973C32.2638 1.37896 32.0999 1.47039 32 1.50486C31.5942 1.65467 31.1828 1.79041 30.7748 1.9353C30.7327 1.95514 30.6938 1.98124 30.6595 2.01267C31.4332 2.23 32.2195 2.41146 32.9805 2.67591C34.3828 3.1086 35.6054 3.98728 36.4627 5.17838C37.1531 6.19002 37.5208 7.38707 37.5174 8.61183C37.514 9.83659 37.1397 11.0316 36.4437 12.0394C35.1794 13.8952 33.2727 15.2172 31.0913 15.7502C29.1207 16.2825 27.0741 16.4769 25.0385 16.3248C24.5679 16.2715 24.1029 16.1774 23.6487 16.0435C23.5046 15.992 23.3666 15.9247 23.2372 15.843C23.3153 15.6067 23.4341 15.4829 23.6592 15.5518C24.8378 15.86 26.0742 15.8728 27.2589 15.5891C28.7879 15.3676 30.2512 14.8192 31.5492 13.9813C33.0134 13.0723 34.1033 11.6687 34.6214 10.025C35.0325 8.72962 34.9953 7.33348 34.5159 6.06176C34.2071 5.30318 33.7198 4.63037 33.0953 4.10052C32.4708 3.57067 31.7276 3.19946 30.9289 3.01843C29.7845 2.68013 29.7768 2.69069 28.9863 3.57126C27.5764 5.21269 26.3684 7.01718 25.388 8.94613C24.0817 11.4405 22.9294 14.0124 21.9374 16.6476C20.9013 19.4281 19.5176 22.0664 17.8194 24.4996C16.4746 26.4703 14.7505 28.1531 12.7477 29.4497C10.6412 30.7804 8.16553 31.4052 5.6799 31.2334C4.98139 31.2028 4.29366 31.05 3.64797 30.7818C3.19218 30.5959 2.7918 30.2961 2.48525 29.9109C2.17871 29.5258 1.97627 29.0684 1.89737 28.5825C1.88066 28.5185 1.86023 28.4556 1.83618 28.394L1.83688 27.6372Z" fill="#A3CDB8"/>
<path d="M83.1106 2.63437C82.3982 2.66672 81.6822 2.6618 80.9746 2.73776C78.2779 3.02646 75.7178 4.07174 73.5896 5.75296C71.1712 7.54508 69.3507 10.026 68.3667 12.8707C68.1027 13.5828 68.0267 14.3509 68.1458 15.101C68.2292 15.5068 68.44 15.8754 68.7476 16.153C69.0552 16.4306 69.4434 16.6026 69.8556 16.6441C70.7041 16.7195 71.5489 16.4645 72.2139 15.9323C72.3686 15.8148 72.5656 15.6439 72.721 15.8247C72.8764 16.0055 72.6711 16.1623 72.5381 16.2812C71.625 17.1556 70.4379 17.6877 69.1776 17.7877C66.9459 17.9171 65.8663 16.4647 65.9669 14.4328C66.1141 12.9287 66.6809 11.4962 67.6028 10.2986C69.6216 7.35081 72.4316 5.03282 75.7095 3.6113C77.4426 2.8036 79.2932 2.27702 81.192 2.05132C82.1527 1.94934 83.1268 1.97746 84.0946 1.93737C84.2173 1.925 84.3366 1.8897 84.4463 1.83329C85.0364 1.56743 85.6194 1.2875 86.2123 1.03008C86.3529 0.962551 86.5114 0.941834 86.6646 0.970992C86.794 1.00897 86.8903 1.16019 87.0015 1.26147C86.9157 1.34305 86.8432 1.4598 86.7406 1.5006C86.3186 1.66588 85.8902 1.80726 85.4647 1.95988C85.4263 1.98124 85.3906 2.00721 85.3585 2.03724C85.9345 2.17791 86.4993 2.27709 87.0465 2.44589C88.3673 2.78741 89.5774 3.4643 90.5597 4.41099C91.1389 4.98778 91.5875 5.68229 91.8751 6.44748C92.1627 7.21266 92.2825 8.03068 92.2265 8.84621C92.1519 9.94388 91.8187 11.0084 91.2541 11.9526C90.6895 12.8969 89.9095 13.6942 88.9779 14.2795C87.556 15.2514 85.9266 15.8776 84.2198 16.1081C83.8287 16.1721 83.4356 16.2256 82.9658 16.2952L83.2731 16.4781C84.2486 17.0071 85.1075 17.7271 85.7988 18.5951C86.6191 19.7134 87.0573 21.0661 87.0486 22.4529C87.1088 23.6642 86.9877 24.8778 86.6892 26.0533C86.2686 27.3189 85.541 28.4607 84.5715 29.3765C83.3103 30.6009 81.707 31.4133 79.9738 31.706C78.7878 31.9651 77.5723 32.0635 76.3601 31.9985C74.9649 31.9617 73.613 31.5064 72.4798 30.6918C71.9872 30.3247 71.617 29.8173 71.4178 29.2362C71.2187 28.6551 71.1997 28.0274 71.3636 27.4353C71.5275 26.8697 71.8934 26.3839 72.3919 26.0701C72.6438 25.8806 72.9584 25.794 73.2718 25.8278C73.5853 25.8616 73.8741 26.0134 74.0798 26.2523C74.2533 26.3933 74.3959 26.5683 74.4991 26.7666C74.6023 26.9649 74.6638 27.1822 74.6798 27.4051C74.6843 27.5901 74.6415 27.7733 74.5553 27.9371C74.4691 28.101 74.3425 28.2401 74.1874 28.3412C74.0203 28.4246 73.8759 28.5471 73.7664 28.6984C73.657 28.8497 73.5858 29.0252 73.5589 29.21C73.532 29.3948 73.5502 29.5834 73.612 29.7596C73.6739 29.9358 73.7774 30.0944 73.9138 30.2219C74.2339 30.6172 74.6542 30.9193 75.131 31.0965C75.6077 31.2736 76.1233 31.3194 76.6238 31.2291C79.549 30.9084 83.1936 28.4622 84.0883 24.7514C84.6058 22.9275 84.476 20.9806 83.7211 19.2415C83.2843 18.3261 82.5685 17.5728 81.6765 17.09C80.8065 16.6185 79.8371 16.3599 78.8477 16.3353C78.6449 16.3206 78.4454 16.2751 78.2562 16.2003C78.157 16.1727 78.0683 16.116 78.0016 16.0375C77.9349 15.959 77.8933 15.8623 77.8822 15.7599C77.8711 15.6575 77.8909 15.5541 77.9392 15.4631C77.9874 15.3721 78.0618 15.2976 78.1528 15.2494C78.4857 15.0249 78.888 14.9276 79.2866 14.9751C80.001 15.0452 80.7004 15.225 81.36 15.5082C81.5613 15.5863 81.7791 15.612 81.9931 15.5827C84.0338 15.3052 85.9432 14.4181 87.4713 13.0374C88.1436 12.4317 88.6826 11.6928 89.054 10.8676C89.4254 10.0425 89.621 9.14904 89.6284 8.24416C89.6892 7.00348 89.2967 5.78303 88.5242 4.81031C87.7516 3.83759 86.6518 3.17897 85.4295 2.95721C84.4807 2.73918 84.4765 2.73567 83.8266 3.44955C82.4706 4.99712 81.3029 6.70005 80.3479 8.52268C78.9372 11.1601 77.7025 13.888 76.6519 16.6884C75.6448 19.3758 74.3154 21.9312 72.6929 24.2984C71.2678 26.4516 69.3913 28.2689 67.1935 29.6241C65.1464 30.8448 62.7737 31.4072 60.3965 31.2354C59.6098 31.2049 58.8382 31.0096 58.1318 30.6622C57.7719 30.4613 57.4567 30.1895 57.2051 29.8631C56.9535 29.5367 56.7709 29.1627 56.6682 28.7636C56.5655 28.3645 56.545 27.9487 56.6079 27.5415C56.6707 27.1342 56.8156 26.7439 57.0338 26.3944C57.2116 26.0957 57.483 25.8639 57.8058 25.7349C58.1286 25.606 58.485 25.5871 58.8196 25.6812C59.1387 25.8134 59.4147 26.032 59.6163 26.3124C59.818 26.5929 59.9374 26.924 59.9611 27.2686C59.9251 27.485 59.8391 27.6899 59.71 27.8672C59.6256 27.9733 59.5258 28.0662 59.4139 28.1429C59.2681 28.2426 59.1477 28.375 59.0623 28.5296C58.9769 28.6842 58.9288 28.8567 58.9219 29.0332C58.9151 29.2097 58.9497 29.3853 59.0229 29.5461C59.0961 29.7068 59.206 29.8482 59.3436 29.9589C59.6954 30.3095 60.1292 30.5668 60.6056 30.7074C61.082 30.8481 61.586 30.8676 62.0718 30.7642C63.893 30.4532 65.568 29.5709 66.8545 28.2449C68.5912 26.5169 70.0124 24.4987 71.0541 22.2813C72.0901 20.2466 73.0333 18.1647 74.0187 16.1039C75.2934 13.3197 76.7674 10.6311 78.4293 8.05919C79.7076 6.09744 81.2567 4.32608 83.0305 2.79756C83.0649 2.76872 83.0966 2.73636 83.1296 2.70541L83.1106 2.63437Z" fill="#A3CDB8"/>
<path d="M44.0938 22.1245C42.5598 24.0235 41.0174 25.9225 39.4989 27.8327C39.2063 28.2282 38.9499 28.6494 38.733 29.091C38.6261 29.2921 38.5522 29.5967 38.7759 29.7289C38.9862 29.8146 39.2218 29.8146 39.4321 29.7289C40.259 29.407 40.9986 28.8953 41.5913 28.235C42.5901 27.1519 43.5508 26.0343 44.5207 24.9244C44.9104 24.4792 45.2993 24.0319 45.6538 23.5599C45.8759 23.2441 46.073 22.9113 46.2432 22.5647C46.3031 22.4167 46.4075 22.2908 46.5418 22.2044C46.6762 22.118 46.834 22.0754 46.9936 22.0823C47.545 22.0823 48.0965 22.0077 48.6486 22.0056C48.8511 22.0056 49.1887 22.0759 49.226 22.1955C49.2528 22.4186 49.1929 22.6434 49.0586 22.8236C48.1219 24.1936 47.0876 25.4944 45.9639 26.7158C45.3158 27.4386 44.7731 28.2494 44.3519 29.124C44.2856 29.3456 44.2517 29.5757 44.2513 29.807C44.4726 29.8161 44.6941 29.8022 44.9125 29.7655C46.2245 29.3594 47.4125 28.628 48.3658 27.6393C49.4099 26.5701 50.3549 25.4083 51.189 24.1683C51.4338 23.8314 51.6905 23.5009 51.9676 23.19C52.1794 22.9733 52.3006 22.6841 52.3066 22.3812C52.3015 22.3397 52.3053 22.2977 52.3178 22.2578C52.3303 22.218 52.3513 22.1813 52.3792 22.1503C52.4072 22.1193 52.4415 22.0946 52.4798 22.078C52.5181 22.0615 52.5596 22.0533 52.6013 22.0541C53.4727 22.014 54.3442 21.988 55.2156 21.9599C55.2661 21.9663 55.3154 21.98 55.3619 22.0007C55.4035 22.166 55.4078 22.3386 55.3746 22.5058C55.3414 22.6731 55.2715 22.8308 55.1699 22.9678C54.7345 23.5241 54.2703 24.0579 53.8237 24.6058C51.815 27.0717 49.807 29.5381 47.7997 32.0049C45.8286 34.3975 43.0207 35.9501 39.9462 36.3473C38.876 36.5516 37.7791 36.5753 36.7011 36.4176C36.2634 36.3384 35.8379 36.203 35.435 36.0146C35.2218 35.9378 35.0398 35.7928 34.9173 35.602C34.7949 35.4113 34.7388 35.1855 34.7577 34.9596C34.7742 34.7455 34.8511 34.5406 34.9794 34.3685C35.1078 34.1964 35.2824 34.0643 35.4829 33.9876C35.7026 33.8829 35.9428 33.8285 36.1862 33.8285C36.4296 33.8285 36.6699 33.8829 36.8895 33.9876C36.9864 34.0209 37.0738 34.0772 37.1441 34.1517C37.2144 34.2262 37.2656 34.3166 37.2933 34.4153C37.321 34.5139 37.3243 34.6178 37.303 34.718C37.2816 34.8182 37.2363 34.9117 37.1709 34.9905C36.7489 35.5799 36.8607 35.8528 37.5767 36.0153C38.4003 36.1816 39.2552 36.0903 40.025 35.7536C41.9016 34.9845 43.5551 33.7564 44.8337 32.1821C45.5145 31.3754 46.1342 30.518 46.7819 29.6832L46.7257 29.6128C46.6441 29.6614 46.5611 29.7078 46.4816 29.7584C45.6828 30.3296 44.7682 30.7181 43.8026 30.8964C43.3245 30.959 42.8393 30.9395 42.3678 30.8387C42.1952 30.803 42.032 30.7317 41.8884 30.6295C41.7449 30.5272 41.6241 30.3963 41.5339 30.2449C41.4437 30.0935 41.386 29.9249 41.3644 29.75C41.3428 29.5751 41.3578 29.3976 41.4085 29.2288C41.4183 29.1634 41.4352 29.0994 41.4591 28.989C41.1975 29.1873 40.9724 29.3639 40.7417 29.5327C39.9091 30.1743 38.9346 30.6068 37.9002 30.7937C37.652 30.8373 37.3985 30.8411 37.1491 30.805C36.831 30.7392 36.5519 30.5504 36.3726 30.2796C36.1933 30.0088 36.1283 29.6781 36.1918 29.3596C36.2052 29.1669 36.2143 28.9735 36.2298 28.7161C36.1018 28.8068 36.0125 28.868 35.9253 28.932C34.9643 29.7046 33.8914 30.3267 32.7434 30.7769C32.3047 30.9243 31.8445 30.9972 31.3817 30.9928C30.9496 30.9844 30.5363 30.8141 30.2238 30.5155C29.9112 30.217 29.722 29.812 29.6937 29.3807C29.6832 29.2858 29.6748 29.1915 29.66 29.0445C29.5418 29.1318 29.449 29.1965 29.3625 29.2633C28.3461 30.084 27.1247 30.6113 25.8303 30.7881C25.5735 30.8483 25.3057 30.8424 25.0518 30.771C24.7979 30.6995 24.5663 30.5648 24.3786 30.3795C24.2147 30.1839 24.1063 29.948 24.0646 29.6962C24.0229 29.4445 24.0495 29.1862 24.1416 28.9482C24.2982 28.3705 24.5489 27.8225 24.8836 27.3263C25.9175 25.9583 27.0211 24.6424 28.1077 23.3173C29.8164 21.2312 31.5297 19.1489 33.2477 17.0703C33.3533 16.9628 33.4349 16.8342 33.487 16.6928C33.5392 16.5514 33.5607 16.4005 33.5501 16.2502C33.5234 16.0202 33.6366 15.9499 33.8511 15.9337C34.6248 15.876 35.3985 15.8029 36.1721 15.7375C36.3684 15.7206 36.6483 15.6193 36.7137 15.8528C36.7441 15.9698 36.7507 16.0917 36.7332 16.2113C36.7156 16.3309 36.6744 16.4458 36.6117 16.5491C35.9429 17.4529 35.2367 18.3293 34.5341 19.2077C32.2089 22.1148 29.8822 25.0219 27.5542 27.9291C27.3342 28.1873 27.139 28.4656 26.9711 28.7604C26.8656 28.9492 26.8333 29.1703 26.8804 29.3814C26.9648 29.6227 27.2539 29.5924 27.4726 29.553C27.6643 29.5274 27.8495 29.4666 28.0191 29.3737C28.5986 29.022 29.1648 28.6528 29.7331 28.2856C29.7898 28.2494 29.8345 28.1973 29.8618 28.1358C30.3731 26.9989 31.1374 25.9938 32.0963 25.1973C33.7795 23.6284 35.859 22.5487 38.1105 22.0745C38.6332 21.9556 39.1767 21.9633 39.6958 22.097C40.1021 22.2046 40.4492 22.4686 40.6615 22.8313C40.8133 22.6741 40.9501 22.5032 41.0702 22.3207C41.1288 22.2111 41.2208 22.123 41.3328 22.0691C41.4448 22.0153 41.5711 21.9984 41.6933 22.0211C42.4761 22.0344 43.2596 22.026 44.0431 22.026L44.0938 22.1245ZM33.1112 29.9082C33.4601 29.8434 33.7996 29.7354 34.1219 29.5868C34.8047 29.2036 35.4452 28.7496 36.0329 28.2322C36.9388 27.3622 37.7638 26.4035 38.5888 25.4575C38.9464 25.0131 39.2753 24.5463 39.5735 24.06C39.6674 23.9019 39.7413 23.7327 39.7936 23.5564C39.8653 23.4288 39.8979 23.283 39.8872 23.137C39.8766 22.9911 39.8232 22.8515 39.7338 22.7356C39.6257 22.6208 39.4857 22.5409 39.3318 22.506C39.178 22.4712 39.0172 22.4831 38.8701 22.5401C38.3125 22.7261 37.7762 22.9705 37.27 23.2695C35.7137 24.332 34.3513 25.6538 33.2421 27.1772C32.8616 27.6627 32.5429 28.1935 32.2933 28.7576C32.0295 29.3646 32.4276 29.8527 33.1105 29.9082H33.1112Z" fill="#A3CDB8"/>
<path d="M97.6582 26.4585C97.5295 26.5956 97.4029 26.7342 97.2721 26.8692C95.8501 28.3898 94.1374 29.6095 92.2355 30.4562C91.1902 30.9202 90.0288 31.0563 88.9045 30.8466C88.582 30.8208 88.2698 30.7204 87.9927 30.5532C87.7156 30.386 87.4812 30.1567 87.308 29.8834C87.1348 29.61 87.0275 29.3001 86.9947 28.9781C86.9618 28.6562 87.0043 28.331 87.1188 28.0283C87.3834 27.0206 87.8874 26.0917 88.588 25.3205C89.9372 23.6923 91.8006 22.5721 93.8715 22.1442C94.5223 21.9786 95.1999 21.947 95.8633 22.0514C96.165 22.0892 96.4505 22.2091 96.6885 22.3983C96.9265 22.5874 97.1079 22.8383 97.2128 23.1237C97.3178 23.409 97.3422 23.7177 97.2834 24.016C97.2246 24.3143 97.085 24.5906 96.8796 24.8148C96.2544 25.5865 95.4692 26.2135 94.5783 26.6526C92.9586 27.4531 91.1964 27.9249 89.3934 28.041C89.3371 28.0459 89.2815 28.0537 89.2295 28.0593C89.2142 28.2657 89.2399 28.4732 89.3052 28.6697C89.3704 28.8662 89.474 29.0478 89.6098 29.204C89.7456 29.3603 89.911 29.4881 90.0964 29.5802C90.2819 29.6722 90.4837 29.7266 90.6903 29.7402C91.6331 29.8279 92.58 29.6247 93.4038 29.1579C95.164 28.2628 96.7374 27.0401 98.0394 25.5554C98.2367 25.3054 98.3927 25.0255 98.5015 24.7262C99.0511 23.3817 99.6873 22.0742 100.406 20.8121C101.775 18.4911 103.888 17.1513 106.335 16.2327C107.539 15.7484 108.854 15.6089 110.133 15.8297C110.502 15.8617 110.858 15.9793 111.174 16.1732C111.49 16.3671 111.756 16.6319 111.952 16.9466C112.051 17.0978 112.114 17.2696 112.135 17.4489C112.157 17.6282 112.138 17.81 112.078 17.9805C112 18.1259 111.891 18.2519 111.758 18.3492C111.625 18.4466 111.472 18.5128 111.309 18.543C111.147 18.5732 110.981 18.5666 110.821 18.5236C110.662 18.4807 110.515 18.4025 110.39 18.2949C110.296 18.1956 110.236 18.069 110.219 17.9334C110.202 17.7979 110.229 17.6604 110.295 17.5409C110.347 17.4484 110.408 17.361 110.476 17.28C110.561 17.201 110.622 17.1006 110.654 16.9895C110.686 16.8783 110.687 16.7606 110.657 16.649C110.627 16.5373 110.568 16.4358 110.485 16.3553C110.402 16.2748 110.299 16.2183 110.186 16.1919C109.828 16.0768 109.449 16.0404 109.075 16.085C107.458 16.3313 105.98 17.1436 104.906 18.3772C103.816 19.6528 102.877 21.0508 102.11 22.543C101.116 24.2838 100.079 26.0006 99.0459 27.7182C98.5494 28.5098 97.9046 29.1981 97.1469 29.7452C97.1012 29.7796 97.0597 29.8197 97.0062 29.8647C97.1201 30.0169 97.2661 30.1421 97.4339 30.2313C97.6016 30.3205 97.787 30.3716 97.9768 30.381C99.6311 30.5949 101.305 30.1781 102.666 29.2134C103.735 28.4999 104.661 27.5936 105.398 26.5408C105.904 25.8349 106.188 24.9947 106.214 24.1269C106.225 23.9623 106.215 23.7969 106.185 23.6346C106.167 23.4513 106.104 23.2752 106.003 23.1212C105.902 22.9672 105.765 22.8399 105.604 22.7502C105.443 22.6604 105.263 22.6109 105.079 22.6057C104.894 22.6004 104.712 22.6398 104.546 22.7203C103.92 22.8792 103.364 23.2386 102.962 23.7436C102.921 23.8099 102.863 23.8637 102.794 23.8991C102.716 23.9261 102.63 23.9213 102.555 23.8857C102.533 23.8575 102.518 23.8242 102.513 23.7889C102.507 23.7536 102.511 23.7174 102.523 23.6838C102.597 23.4954 102.701 23.3201 102.831 23.1648C103.306 22.6405 103.93 22.2726 104.618 22.1094C105.307 21.9462 106.029 21.9953 106.69 22.2505C107.232 22.4568 107.679 22.8546 107.948 23.3686C108.216 23.8826 108.287 24.4772 108.147 25.0399C107.968 26.0422 107.556 26.9882 106.943 27.801C106.33 28.6138 105.534 29.2705 104.619 29.7177C102.676 30.7156 100.497 31.1608 98.318 31.0048C97.6169 30.9846 96.93 30.8021 96.3114 30.4717C96.2572 30.4532 96.1997 30.4462 96.1427 30.4512C96.0856 30.4561 96.0302 30.473 95.9801 30.5006C95.6756 30.6843 95.3298 30.7883 94.9745 30.8029C94.6192 30.8176 94.2659 30.7424 93.9474 30.5842C93.7667 30.4949 93.581 30.3732 93.721 30.1404C93.746 30.0947 93.7818 30.0557 93.8252 30.0268C93.8685 29.9978 93.9182 29.9797 93.9701 29.9741C94.0219 29.9684 94.0743 29.9753 94.1229 29.9942C94.1715 30.0132 94.2148 30.0435 94.2492 30.0828C94.3703 30.1855 94.5128 30.2598 94.6664 30.3001C94.82 30.3405 94.9807 30.3459 95.1367 30.3159C95.2926 30.286 95.4399 30.2214 95.5676 30.127C95.6953 30.0326 95.8002 29.9108 95.8746 29.7705C96.5312 28.893 97.0855 27.9435 97.5267 26.9403C97.5921 26.7947 97.6526 26.647 97.7159 26.5007L97.6582 26.4585ZM89.2323 27.6443L89.3216 27.7034C91.2662 27.3961 93.0578 26.4641 94.4257 25.0483C94.8855 24.5851 95.2015 23.9989 95.3358 23.3603C95.3611 23.2912 95.37 23.2171 95.362 23.1439C95.3539 23.0707 95.329 23.0004 95.2892 22.9384C95.2494 22.8764 95.1959 22.8245 95.1327 22.7867C95.0695 22.7488 94.9985 22.7261 94.9251 22.7203C94.5021 22.6464 94.0667 22.7097 93.6823 22.901C92.6511 23.3384 91.7227 23.9864 90.9565 24.8035C90.1903 25.6205 89.6033 26.5886 89.233 27.6457L89.2323 27.6443Z" fill="#A3CDB8"/>
<path d="M110.191 28.0522C110.174 28.2584 110.198 28.466 110.262 28.663C110.325 28.8599 110.428 29.0422 110.562 29.1992C110.697 29.3563 110.862 29.4849 111.047 29.5778C111.232 29.6707 111.433 29.7259 111.64 29.7402C112.563 29.8297 113.491 29.6361 114.301 29.1852C116.115 28.2695 117.735 27.0094 119.068 25.4752C119.126 25.4105 119.173 25.3345 119.227 25.2641C119.28 25.1938 119.333 25.1319 119.396 25.0532C119.628 25.2213 119.488 25.3816 119.396 25.4984C119.049 25.9281 118.699 26.3578 118.322 26.7608C116.916 28.2952 115.216 29.5321 113.323 30.3985C112.223 30.9061 110.992 31.0588 109.801 30.8352C109.499 30.8036 109.208 30.7058 108.949 30.5488C108.69 30.3919 108.468 30.1796 108.3 29.9272C108.132 29.6747 108.022 29.3883 107.977 29.0884C107.933 28.7885 107.955 28.4825 108.042 28.1921C108.324 26.9859 108.939 25.8831 109.817 25.0095C111.138 23.5425 112.894 22.5366 114.828 22.1392C115.469 21.9746 116.136 21.9421 116.79 22.0436C117.105 22.078 117.404 22.2012 117.651 22.399C117.899 22.5968 118.085 22.8609 118.188 23.1605C118.292 23.4602 118.308 23.783 118.234 24.0913C118.161 24.3997 118.001 24.6808 117.774 24.9019C117.077 25.714 116.209 26.3636 115.234 26.8052C113.698 27.5052 112.047 27.9224 110.363 28.0367C110.299 28.0451 110.243 28.0487 110.191 28.0522ZM110.181 27.6414L110.267 27.7019C112.192 27.4006 113.969 26.4882 115.335 25.0996C115.77 24.6663 116.085 24.1279 116.25 23.5368C116.408 22.9614 116.192 22.6365 115.598 22.6991C115.128 22.7484 114.67 22.8758 114.243 23.0761C112.712 23.8547 111.455 25.0815 110.639 26.5927C110.465 26.9326 110.312 27.2831 110.181 27.6421V27.6414Z" fill="#A3CDB8"/>
<path d="M33.1106 29.9089C32.4269 29.8534 32.0288 29.3646 32.294 28.7576C32.5436 28.1935 32.8623 27.6627 33.2428 27.1772C34.352 25.6538 35.7145 24.332 37.2708 23.2695C37.7769 22.9706 38.3133 22.7261 38.8709 22.5401C39.0179 22.4831 39.1787 22.4712 39.3326 22.506C39.4864 22.5408 39.6264 22.6208 39.7346 22.7356C39.824 22.8515 39.8773 22.9911 39.888 23.137C39.8986 23.283 39.866 23.4289 39.7943 23.5564C39.742 23.7327 39.6681 23.9019 39.5742 24.06C39.276 24.5463 38.9471 25.0131 38.5895 25.4576C37.7645 26.4063 36.9388 27.3622 36.0336 28.2322C35.4463 28.7498 34.806 29.2041 34.1234 29.5875C33.8004 29.7363 33.4602 29.8443 33.1106 29.9089Z" fill="white"/>
<path d="M89.2324 27.6443C89.6027 26.5871 90.1897 25.619 90.9559 24.8019C91.722 23.9849 92.6505 23.3369 93.6817 22.8996C94.0661 22.7083 94.5016 22.645 94.9245 22.7188C94.9979 22.7247 95.069 22.7474 95.1321 22.7852C95.1953 22.8231 95.2489 22.875 95.2886 22.937C95.3284 22.9989 95.3533 23.0693 95.3614 23.1424C95.3695 23.2156 95.3605 23.2897 95.3352 23.3589C95.2009 23.9975 94.8848 24.5837 94.4251 25.0469C93.0572 26.4626 91.2656 27.3946 89.321 27.7019L89.2324 27.6443Z" fill="white"/>
<path d="M110.181 27.6421C110.312 27.2833 110.466 26.9331 110.64 26.5935C111.456 25.0821 112.713 23.8554 114.244 23.0768C114.672 22.8766 115.13 22.7491 115.599 22.6998C116.193 22.6372 116.409 22.9621 116.251 23.5375C116.086 24.1286 115.771 24.667 115.337 25.1003C113.97 26.489 112.193 27.4013 110.268 27.7026L110.181 27.6421Z" fill="white"/>
</g>
</g>
<defs>
<clipPath id="clip0_246_80">
<rect width="120.973" height="36.5733" fill="white" transform="translate(0.0266113 0.313354)"/>
</clipPath>
</defs>
</svg>
