<svg width="105" height="22" viewBox="0 0 105 22" fill="none" xmlns="http://www.w3.org/2000/svg">
<mask id="mask0_246_96" style="mask-type:alpha" maskUnits="userSpaceOnUse" x="0" y="0" width="105" height="22">
<rect width="105" height="21.8984" fill="#D9D9D9"/>
</mask>
<g mask="url(#mask0_246_96)">
<rect x="23.7874" y="-2.52673" width="4.21123" height="28.1201" transform="rotate(28 23.7874 -2.52673)" fill="#FF9998"/>
<rect x="13.2014" y="-2.52673" width="4.21123" height="28.1201" transform="rotate(28 13.2014 -2.52673)" fill="#FF9998"/>
<path d="M95.8887 21.5355L100.134 0.363037L105.076 0.363037L100.831 21.5355H95.8887Z" fill="#526897"/>
<path d="M73.592 21.5355L77.837 0.363037L86.4784 0.363037C89.1264 0.363037 91.168 0.93772 92.6032 2.08708C94.0586 3.23645 94.7863 4.84959 94.7863 6.92651C94.7863 8.70096 94.3618 10.2435 93.5128 11.5542C92.6841 12.8447 91.4915 13.8429 89.935 14.5486C88.3987 15.2544 86.5795 15.6072 84.4772 15.6072H77.5641L80.1413 13.4597L78.5343 21.5355H73.592ZM87.2364 21.5355L82.9005 13.8529H88.0551L92.4213 21.5355H87.2364ZM80.0201 14.0344L78.3221 11.7054H84.6592C86.2965 11.7054 87.5598 11.3425 88.4493 10.6166C89.3589 9.87049 89.8137 8.7917 89.8137 7.3802C89.8137 6.35183 89.46 5.59566 88.7525 5.11172C88.0652 4.60762 87.0949 4.35556 85.8417 4.35556H79.8685L82.4457 1.9661L80.0201 14.0344Z" fill="#526897"/>
<path d="M59.0154 21.8984C56.8728 21.8984 55.0232 21.5153 53.4667 20.749C51.9305 19.9626 50.748 18.8838 49.9192 17.5127C49.0904 16.1213 48.676 14.5183 48.676 12.7035C48.676 10.8887 48.9893 9.21507 49.616 7.68259C50.2426 6.12994 51.132 4.78901 52.2842 3.65981C53.4566 2.51045 54.8413 1.61314 56.4382 0.967885C58.0553 0.322629 59.8442 0 61.805 0C63.9476 0 65.7871 0.393203 67.3233 1.17961C68.8798 1.94585 70.0724 3.02464 70.9012 4.41597C71.73 5.78714 72.1444 7.38012 72.1444 9.19491C72.1444 11.0097 71.8311 12.6934 71.2044 14.2461C70.5778 15.7785 69.6783 17.1195 68.5059 18.2688C67.3537 19.398 65.969 20.2853 64.3519 20.9305C62.755 21.5758 60.9762 21.8984 59.0154 21.8984ZM59.4399 17.7244C60.6325 17.7244 61.7039 17.5127 62.6539 17.0892C63.6242 16.6456 64.4429 16.0407 65.1099 15.2744C65.777 14.5082 66.2823 13.631 66.626 12.643C66.9898 11.6348 67.1717 10.5762 67.1717 9.46712C67.1717 8.41858 66.9494 7.50111 66.5047 6.7147C66.06 5.90813 65.403 5.28304 64.5338 4.83942C63.6848 4.39581 62.6337 4.174 61.3805 4.174C60.1878 4.174 59.1165 4.39581 58.1665 4.83942C57.2164 5.26287 56.3977 5.85772 55.7105 6.62396C55.0434 7.3902 54.5279 8.27743 54.1641 9.28564C53.8205 10.2737 53.6486 11.3222 53.6486 12.4313C53.6486 13.4798 53.871 14.4074 54.3157 15.2139C54.7806 16.0003 55.4376 16.6154 56.2866 17.059C57.1558 17.5026 58.2069 17.7244 59.4399 17.7244Z" fill="#526897"/>
<path d="M36.0717 21.8984C34.9195 21.8984 33.7976 21.7875 32.7061 21.5657C31.6347 21.364 30.6543 21.0817 29.7649 20.7188C28.8957 20.3558 28.1579 19.9626 27.5515 19.5392L29.5527 15.7584C30.2197 16.2222 30.9272 16.6254 31.6752 16.9682C32.4433 17.2909 33.2417 17.5429 34.0705 17.7244C34.8993 17.8857 35.728 17.9664 36.5568 17.9664C37.4664 17.9664 38.2447 17.8655 38.8915 17.6639C39.5586 17.4623 40.0639 17.18 40.4076 16.817C40.7714 16.454 40.9533 16.0104 40.9533 15.4862C40.9533 15.0022 40.7613 14.609 40.3772 14.3065C39.9932 14.0041 39.4878 13.752 38.8612 13.5504C38.2548 13.3286 37.5776 13.1169 36.8297 12.9152C36.0818 12.7136 35.3238 12.4817 34.5556 12.2195C33.8077 11.9372 33.1204 11.5945 32.4938 11.1912C31.8874 10.7677 31.3922 10.2334 31.0081 9.58811C30.624 8.94285 30.432 8.13628 30.432 7.1684C30.432 5.71657 30.8262 4.4563 31.6145 3.3876C32.4231 2.31889 33.555 1.49215 35.0104 0.907391C36.4658 0.302464 38.1739 0 40.1347 0C41.5699 0 42.9242 0.161314 44.1977 0.483942C45.4711 0.786405 46.5627 1.23002 47.4723 1.81478L45.6227 5.56534C44.8142 5.0209 43.9147 4.61762 42.9242 4.35548C41.9337 4.07318 40.9129 3.93203 39.8618 3.93203C38.9117 3.93203 38.0931 4.04294 37.4058 4.26474C36.7387 4.48655 36.2233 4.7991 35.8594 5.20238C35.5158 5.5855 35.344 6.02912 35.344 6.53322C35.344 7.03733 35.5259 7.4507 35.8897 7.77332C36.2738 8.07579 36.7792 8.33792 37.4058 8.55973C38.0324 8.76137 38.7197 8.96302 39.4676 9.16466C40.2155 9.3663 40.9634 9.59819 41.7114 9.86033C42.4593 10.1225 43.1465 10.4552 43.7732 10.8585C44.3998 11.2617 44.9052 11.7759 45.2892 12.401C45.6733 13.006 45.8653 13.7722 45.8653 14.6998C45.8653 16.1516 45.461 17.4219 44.6525 18.5108C43.8439 19.5795 42.7018 20.4163 41.2262 21.0213C39.7708 21.606 38.0526 21.8984 36.0717 21.8984Z" fill="#526897"/>
</g>
</svg>
