<svg width="28" height="32" viewBox="0 0 28 32" fill="none" xmlns="http://www.w3.org/2000/svg">
<path fill-rule="evenodd" clip-rule="evenodd" d="M4.23998 27.2908L12.5263 12.5007C13.1882 11.3193 14.9207 11.3193 15.5826 12.5007L23.8914 27.3309C24.6121 28.6172 23.4507 30.1362 21.9881 29.8203L15.2241 28.3597C14.3508 28.1711 13.4459 28.1729 12.5734 28.365L6.15023 29.7787C4.68565 30.1011 3.51771 28.58 4.23998 27.2908ZM10.6162 11.4736C12.1054 8.81544 16.0035 8.81545 17.4928 11.4736L25.8016 26.3038C27.4231 29.1979 24.81 32.6156 21.519 31.905L14.7551 30.4444C14.1937 30.3231 13.6119 30.3243 13.051 30.4477L6.62787 31.8615C3.33257 32.5868 0.704711 29.1643 2.3298 26.2637L10.6162 11.4736Z" fill="black"/>
<path fill-rule="evenodd" clip-rule="evenodd" d="M13.9455 7.15112C14.5473 7.15112 15.035 6.67326 15.035 6.08378L15.035 1.06727C15.035 0.477795 14.5473 -7.04587e-05 13.9455 -7.04844e-05C13.3438 -7.05102e-05 12.856 0.477795 12.856 1.06727L12.856 6.08378C12.856 6.67326 13.3438 7.15112 13.9455 7.15112Z" fill="black"/>
<path fill-rule="evenodd" clip-rule="evenodd" d="M19.5932 8.14426L22.8871 4.91725C23.3126 4.50043 23.3126 3.82462 22.8871 3.4078C22.4617 2.99098 21.7718 2.99098 21.3464 3.4078L18.0524 6.63481C17.6269 7.05163 17.6269 7.72743 18.0524 8.14426C18.4779 8.56108 19.1677 8.56108 19.5932 8.14426Z" fill="black"/>
<path fill-rule="evenodd" clip-rule="evenodd" d="M4.86946 5.02406L8.16344 8.25106C8.58892 8.66789 9.27875 8.66789 9.70422 8.25106C10.1297 7.83424 10.1297 7.15844 9.70422 6.74161L6.41024 3.51461C5.98477 3.09778 5.29494 3.09778 4.86946 3.51461C4.44399 3.93143 4.44399 4.60723 4.86946 5.02406Z" fill="black"/>
<path fill-rule="evenodd" clip-rule="evenodd" d="M0 11.9543C0 11.3648 0.487783 10.887 1.08949 10.887L6.21012 10.887C6.81183 10.887 7.29961 11.3648 7.29961 11.9543C7.29961 12.5438 6.81183 13.0216 6.21012 13.0216L1.08949 13.0216C0.487783 13.0216 0 12.5438 0 11.9543Z" fill="black"/>
<path fill-rule="evenodd" clip-rule="evenodd" d="M20.7004 11.9543C20.7004 11.3648 21.1882 10.887 21.7899 10.887L26.9105 10.887C27.5122 10.887 28 11.3648 28 11.9543C28 12.5438 27.5122 13.0216 26.9105 13.0216L21.7899 13.0216C21.1882 13.0216 20.7004 12.5438 20.7004 11.9543Z" fill="black"/>
</svg>
