<svg width="402" height="397" viewBox="0 0 402 397" fill="none" xmlns="http://www.w3.org/2000/svg">
<path d="M238.322 64.6051C255.616 39.5513 269.519 -7.95073 186.774 2.47165C161.335 2.47165 142.032 15.1656 135.561 21.5125C124.849 27.8595 100.414 56.7215 88.364 121.394C76.5816 181.256 62.4784 212.033 56.8996 219.939C43.2873 240.316 24.2301 284.143 56.8996 296.436C43.7782 290.022 41.8368 274.389 42.5062 267.374C43.1757 259.691 54.2217 235.973 74.6401 229.292C97.7364 225.283 107.109 218.714 109.787 216.598C115.477 213.035 129.201 201.232 138.573 182.525" stroke="#222222" stroke-width="2" stroke-linecap="round"/>
<path d="M254.724 26.8574C266.105 36.4335 290.473 67.9456 296.9 117.385C299.577 137.985 299.801 152.238 299.577 155.467C300.247 168.495 302.791 196.622 304.933 204.906C307.611 215.262 311.628 229.292 295.226 266.706" stroke="#222222" stroke-width="2" stroke-linecap="round"/>
<path d="M230.289 81.6416C221.809 85.9843 206.121 106.695 211.209 154.799C212.883 174.174 220.431 215.482 201.837 232.298C191.126 241.986 185.1 246.997 182.088 274.723C178.406 294.432 173.72 325.499 117.82 325.499C62.9247 325.499 46.1883 316.145 1 361.91C12.046 345.208 36.1464 312.805 68.6151 310.132C102.423 308.796 113.469 316.145 129.536 289.421" stroke="#222222" stroke-width="2" stroke-linecap="round"/>
<path d="M69.6193 231.63C62.7973 248.439 56.2301 289.421 90.0377 309.798" stroke="#222222" stroke-width="2" stroke-linecap="square"/>
<path d="M241.335 78.9693C254.724 77.4104 280.9 84.2473 278.49 124.066C275.477 173.84 275.477 203.57 257.402 229.292C239.326 255.014 233.301 267.708 215.895 268.71C210.205 268.821 196.146 266.773 185.435 257.686" stroke="#222222" stroke-width="2" stroke-linecap="round"/>
<path d="M22.7573 395.649C14.9469 386.853 4.34725 363.915 21.7531 343.203" stroke="#222222" stroke-width="2" stroke-linecap="round"/>
<path d="M184.096 262.029C189.787 266.594 201.167 277.061 201.167 296.77C201.167 307.46 198.824 308.796 210.205 320.488C221.586 332.18 235.979 341.867 249.703 375.94C254.389 386.296 258.674 391.641 278.49 395.649" stroke="#222222" stroke-width="2" stroke-linecap="round"/>
<path d="M307.276 215.596C316.314 216.598 341.084 221.639 358.49 245.326C360.453 247.999 382.791 273.988 401 287.083" stroke="#222222" stroke-width="2" stroke-linecap="round"/>
<path d="M195.812 275.057C202.953 276.17 220.113 276.994 231.628 271.382C232.632 270.893 242.004 265.369 240.665 253.678M243.678 249.669C244.905 261.806 250.707 289.221 264.096 301.781C265.77 303.674 270.389 306.792 275.477 304.119C281.837 300.779 282.506 299.109 288.531 299.109C296.565 299.109 317.653 300.445 327.36 276.727C337.402 255.682 338.406 248.333 349.787 235.639" stroke="#222222" stroke-width="2" stroke-linecap="round"/>
</svg>
